<mxfile host="www.draw.io" modified="2020-01-25T14:01:49.264Z" agent="Mozilla/5.0 (Windows NT 10.0; Win64; x64) AppleWebKit/537.36 (KHTML, like Gecko) Chrome/79.0.3945.130 Safari/537.36" etag="AtUzGbZrFC4T4gsS9E3D" version="12.5.8" type="github">
  <diagram id="shsol9yh8DjXRLTojRhz" name="Page-1">
    <mxGraphModel dx="782" dy="706" grid="1" gridSize="10" guides="1" tooltips="1" connect="1" arrows="1" fold="1" page="1" pageScale="1" pageWidth="850" pageHeight="1100" math="0" shadow="0">
      <root>
        <mxCell id="0"/>
        <mxCell id="1" parent="0"/>
        <mxCell id="3NyiU3XvVg85KIqUOBzR-2" value="" style="endArrow=none;html=1;" parent="1" edge="1">
          <mxGeometry width="50" height="50" relative="1" as="geometry">
            <mxPoint x="261.58497459409546" y="371.51460803351824" as="sourcePoint"/>
            <mxPoint x="510" y="130" as="targetPoint"/>
          </mxGeometry>
        </mxCell>
        <mxCell id="3NyiU3XvVg85KIqUOBzR-7" value="" style="ellipse;whiteSpace=wrap;html=1;aspect=fixed;fillColor=#0000FF;" parent="1" vertex="1">
          <mxGeometry x="330" y="380" width="10" height="10" as="geometry"/>
        </mxCell>
        <mxCell id="3NyiU3XvVg85KIqUOBzR-8" value="" style="ellipse;whiteSpace=wrap;html=1;aspect=fixed;fillColor=#0000FF;" parent="1" vertex="1">
          <mxGeometry x="360" y="170" width="10" height="10" as="geometry"/>
        </mxCell>
        <mxCell id="3NyiU3XvVg85KIqUOBzR-9" value="" style="ellipse;whiteSpace=wrap;html=1;aspect=fixed;fillColor=#0000FF;" parent="1" vertex="1">
          <mxGeometry x="470" y="230" width="10" height="10" as="geometry"/>
        </mxCell>
        <mxCell id="3NyiU3XvVg85KIqUOBzR-10" value="" style="endArrow=none;dashed=1;html=1;" parent="1" edge="1">
          <mxGeometry width="50" height="50" relative="1" as="geometry">
            <mxPoint x="334.5" y="380" as="sourcePoint"/>
            <mxPoint x="334.5" y="300" as="targetPoint"/>
          </mxGeometry>
        </mxCell>
        <mxCell id="3NyiU3XvVg85KIqUOBzR-11" value="" style="endArrow=none;dashed=1;html=1;entryX=0;entryY=0;entryDx=0;entryDy=0;" parent="1" target="3NyiU3XvVg85KIqUOBzR-8" edge="1">
          <mxGeometry width="50" height="50" relative="1" as="geometry">
            <mxPoint x="361" y="270" as="sourcePoint"/>
            <mxPoint x="370" y="510" as="targetPoint"/>
          </mxGeometry>
        </mxCell>
        <mxCell id="3NyiU3XvVg85KIqUOBzR-12" value="" style="endArrow=none;dashed=1;html=1;entryX=0;entryY=1;entryDx=0;entryDy=0;" parent="1" target="3NyiU3XvVg85KIqUOBzR-9" edge="1">
          <mxGeometry width="50" height="50" relative="1" as="geometry">
            <mxPoint x="471" y="170" as="sourcePoint"/>
            <mxPoint x="310" y="410" as="targetPoint"/>
          </mxGeometry>
        </mxCell>
        <mxCell id="3NyiU3XvVg85KIqUOBzR-13" value="y1_data" style="text;html=1;resizable=0;autosize=1;align=center;verticalAlign=middle;points=[];fillColor=none;strokeColor=none;rounded=0;" parent="1" vertex="1">
          <mxGeometry x="270" y="375" width="60" height="20" as="geometry"/>
        </mxCell>
        <mxCell id="3NyiU3XvVg85KIqUOBzR-14" value="y1_projection" style="text;html=1;resizable=0;autosize=1;align=center;verticalAlign=middle;points=[];fillColor=none;strokeColor=none;rounded=0;" parent="1" vertex="1">
          <mxGeometry x="251" y="277" width="90" height="20" as="geometry"/>
        </mxCell>
        <mxCell id="3NyiU3XvVg85KIqUOBzR-18" value="2" style="text;html=1;resizable=0;autosize=1;align=center;verticalAlign=middle;points=[];fillColor=none;strokeColor=none;rounded=0;" parent="1" vertex="1">
          <mxGeometry x="366" y="150" width="20" height="20" as="geometry"/>
        </mxCell>
        <mxCell id="3NyiU3XvVg85KIqUOBzR-19" value="3" style="text;html=1;resizable=0;autosize=1;align=center;verticalAlign=middle;points=[];fillColor=none;strokeColor=none;rounded=0;" parent="1" vertex="1">
          <mxGeometry x="478" y="211" width="20" height="20" as="geometry"/>
        </mxCell>
      </root>
    </mxGraphModel>
  </diagram>
</mxfile>
